<?xml version="1.0" encoding="UTF-8" standalone="no"?>
<!-- Created with Inkscape (http://www.inkscape.org/) -->

<svg
   version="1.1"
   id="svg48"
   width="300"
   height="300"
   viewBox="0 0 300 300"
   sodipodi:docname="simpler-rotated2b.svg"
   xml:space="preserve"
   inkscape:version="1.2.2 (b0a84865, 2022-12-01)"
   inkscape:export-filename="icon2.svg"
   inkscape:export-xdpi="95.510002"
   inkscape:export-ydpi="95.510002"
   xmlns:inkscape="http://www.inkscape.org/namespaces/inkscape"
   xmlns:sodipodi="http://sodipodi.sourceforge.net/DTD/sodipodi-0.dtd"
   xmlns:xlink="http://www.w3.org/1999/xlink"
   xmlns="http://www.w3.org/2000/svg"
   xmlns:svg="http://www.w3.org/2000/svg"><defs
     id="defs52"><linearGradient
       inkscape:collect="always"
       id="linearGradient987"><stop
         style="stop-color:#fafafa;stop-opacity:1;"
         offset="0"
         id="stop983" /><stop
         style="stop-color:#364e59;stop-opacity:1;"
         offset="1"
         id="stop985" /></linearGradient><linearGradient
       inkscape:collect="always"
       xlink:href="#linearGradient987"
       id="linearGradient989"
       x1="72.448814"
       y1="49.663982"
       x2="2959.3694"
       y2="594.43713"
       gradientUnits="userSpaceOnUse" /></defs><sodipodi:namedview
     id="namedview50"
     pagecolor="#ffffff"
     bordercolor="#000000"
     borderopacity="0.25"
     inkscape:showpageshadow="2"
     inkscape:pageopacity="0.0"
     inkscape:pagecheckerboard="0"
     inkscape:deskcolor="#d1d1d1"
     showgrid="false"
     inkscape:zoom="0.30800938"
     inkscape:cx="1865.2029"
     inkscape:cy="956.13972"
     inkscape:window-width="1687"
     inkscape:window-height="1001"
     inkscape:window-x="55"
     inkscape:window-y="25"
     inkscape:window-maximized="0"
     inkscape:current-layer="layer1" /><g
     inkscape:groupmode="layer"
     id="layer1"
     inkscape:label="svg"
     style="display:inline"><rect
       style="fill:url(#linearGradient989);stroke:none;stroke-width:10.1734;fill-opacity:1"
       id="rect290"
       width="300"
       height="300"
       x="0"
       y="0" /><g
       id="g2048"
       style="fill:#364e59;fill-opacity:1;stroke:#364e59;stroke-opacity:1"
       transform="translate(16.258516,12.499998)"><path
         id="path337"
         style="fill:#364e59;fill-opacity:1;stroke:#364e59;stroke-width:0.735236;stroke-opacity:1"
         d="M 170.26499,4.3367278 C 229.87861,19.095357 273.41159,73.285156 273.41159,137.70235 v 0 c -0.27394,45.52425 -45.63173,69.8196 -4.59872,130.1681 -74.60172,-32.19836 -60.66946,2.2818 -131.31287,6.76194 -10.15536,0 -20.05292,-1.1039 -29.57918,-3.19823 z"
         sodipodi:nodetypes="csscccc" /></g><g
       id="g1838"
       style="fill:#7cc5cc;fill-opacity:1;stroke:#7cc5cc;stroke-opacity:1"
       transform="translate(16.258516,12.499998)"><path
         style="fill:#7cc5cc;fill-opacity:1;stroke:#7cc5cc;stroke-width:0.735236;stroke-opacity:1"
         d="M 107.92082,271.43416 C 46.402722,257.90947 0.36761475,203.08069 0.36761475,137.5 0.36761737,61.763952 61.763952,0.36761737 137.5,0.36761475 c 11.31885,0 22.29018,1.37585025 32.76499,3.96911305 z"
         id="path1834" /></g><path
       fill="currentColor"
       d="m 239.54925,170.11322 a 13.865895,13.865895 0 0 1 -9.0414,10.23335 L 90.12554,229.65739 A 14.094937,14.094937 0 0 1 76.116157,226.92393 13.971606,13.971606 0 0 1 71.674261,213.52034 L 104.22656,61.697543 a 13.971606,13.971606 0 0 1 9.54655,-10.404329 14.094937,14.094937 0 0 1 13.89857,3.250282 L 235.498,157.07271 a 13.865895,13.865895 0 0 1 4.05125,13.04051 z"
       id="path5637"
       style="fill:#364e59;fill-opacity:1;stroke:#7cc5cc;stroke-width:9.181;stroke-dasharray:none;stroke-opacity:1" /></g></svg>
